<svg width="140" height="40" viewBox="0 0 140 40" fill="none" xmlns="http://www.w3.org/2000/svg">
<line y1="19.5" x2="50" y2="19.5" stroke="#579B22"/>
<rect x="50.5" y="0.5" width="39" height="39" rx="19.5" stroke="#579B22"/>
<path d="M65.6635 16.34L64.516 14.8595C63.298 13.2875 64.42 11 66.4075 11C66.892 11 67.363 11.1455 67.762 11.42L70.912 13.58C71.3102 13.0523 71.7683 12.5726 72.277 12.1505C73.063 11.5115 74.0695 10.9925 75.2545 11C77.5705 11.015 79.24 12.8195 80.1175 14.036C80.977 15.224 80.29 16.7015 79.0795 17.1455L75.7315 18.3725L71.0725 25.0925C69.6655 27.122 66.4915 25.7345 67.027 23.3225L67.495 21.212L62.8375 22.5245C62.4473 22.6345 62.037 22.6527 61.6386 22.5776C61.2403 22.5025 60.8647 22.3361 60.5414 22.0916C60.2181 21.847 59.9559 21.5309 59.7752 21.1681C59.5945 20.8052 59.5003 20.4054 59.5 20V15.74C59.5 13.925 61.957 13.3595 62.749 14.9945L63.6565 16.868L65.6635 16.34ZM65.7025 13.94L67.24 15.926L68.8045 15.5135C69.2485 15.398 69.6595 15.1385 70.009 14.78L66.913 12.656C66.7371 12.5363 66.5243 12.4833 66.3129 12.5065C66.1014 12.5296 65.9051 12.6274 65.7593 12.7823C65.6135 12.9372 65.5276 13.139 65.5172 13.3514C65.5068 13.5639 65.5725 13.7716 65.7025 13.94ZM71.7055 15.0515C71.1355 15.914 70.285 16.676 69.1855 16.9655L63.4405 18.4775C63.2723 18.5216 63.0941 18.5059 62.9362 18.4332C62.7784 18.3604 62.6507 18.235 62.575 18.0785L61.399 15.65C61.366 15.581 61.3285 15.557 61.303 15.545C61.2585 15.5278 61.2096 15.5251 61.1635 15.5375C61.1169 15.5466 61.0744 15.5702 61.042 15.605C61.0225 15.626 61 15.665 61 15.74V20C61 20.1737 61.0402 20.3451 61.1176 20.5007C61.1949 20.6562 61.3072 20.7918 61.4456 20.8967C61.5841 21.0016 61.745 21.073 61.9157 21.1054C62.0864 21.1377 62.2623 21.13 62.4295 21.083L67.0885 19.7705C67.3384 19.6999 67.6023 19.6953 67.8544 19.7573C68.1066 19.8193 68.3384 19.9456 68.527 20.124C68.7157 20.3024 68.8548 20.5267 68.9308 20.775C69.0068 21.0233 69.017 21.2871 68.9605 21.5405L68.491 23.651C68.311 24.4535 69.37 24.917 69.8395 24.2405L74.6335 17.3255C74.7215 17.1982 74.8467 17.1013 74.992 17.048L78.562 15.7385C78.6533 15.7081 78.7369 15.6582 78.8068 15.5921C78.8768 15.526 78.9315 15.4454 78.967 15.356C78.9955 15.2832 79.0045 15.2043 78.9932 15.127C78.9819 15.0496 78.9506 14.9766 78.9025 14.915C78.0595 13.7465 76.78 12.5105 75.2455 12.5C74.521 12.4955 73.8445 12.8105 73.2235 13.3145C72.6025 13.8185 72.085 14.4755 71.7055 15.05M60.25 29C60.0511 29 59.8603 29.079 59.7197 29.2197C59.579 29.3603 59.5 29.5511 59.5 29.75C59.5 29.9489 59.579 30.1397 59.7197 30.2803C59.8603 30.421 60.0511 30.5 60.25 30.5H79.75C79.9489 30.5 80.1397 30.421 80.2803 30.2803C80.421 30.1397 80.5 29.9489 80.5 29.75C80.5 29.5511 80.421 29.3603 80.2803 29.2197C80.1397 29.079 79.9489 29 79.75 29H60.25Z" fill="#579B22"/>
<line x1="90" y1="19.5" x2="140" y2="19.5" stroke="#579B22"/>
</svg>
