<svg width="32" height="27" viewBox="0 0 32 27" fill="none" xmlns="http://www.w3.org/2000/svg">
<g clip-path="url(#clip0_1_29)">
<path d="M17.9378 26.5C17.8617 26.4996 17.7864 26.4836 17.7168 26.453C17.4168 26.327 17.3918 26.068 17.3918 25.792V23.6H16.4478C15.9771 23.615 15.5099 23.5162 15.0856 23.312C14.6613 23.1078 14.2926 22.8042 14.0108 22.427C13.6523 21.9347 13.4715 21.3354 13.4978 20.727C13.4978 19.899 13.4978 19.057 13.4978 18.243V18.143C13.4978 17.876 13.4978 17.61 13.4978 17.343C13.4978 17.273 13.4978 17.205 13.4878 17.127V17.117C13.4878 17.075 13.4878 17.031 13.4808 16.983H5.94876C4.81176 16.983 3.88176 16.983 3.02376 16.983C2.31417 16.9974 1.6194 16.779 1.04576 16.361C0.515339 15.9611 0.157641 15.3738 0.0457626 14.719C0.00382694 14.4421 -0.0115763 14.1618 -0.000237356 13.882V13.84C-0.000237356 13.783 -0.000237356 13.726 -0.000237356 13.67C-0.000237356 10.8987 -0.000237356 8.12701 -0.000237356 5.35501V2.86801C-0.00883892 2.47219 0.0663313 2.07902 0.220344 1.71428C0.374356 1.34955 0.603731 1.02149 0.893426 0.751626C1.18312 0.48176 1.52659 0.276182 1.90131 0.148374C2.27603 0.0205659 2.67354 -0.026585 3.06776 0.0100135H9.08076H10.1808H10.6418C11.0798 0.0100135 11.5258 0.0100135 11.9568 0.0180135H11.9718C12.4058 0.0180135 12.8548 0.0250135 13.2998 0.0250135C13.9488 0.0250135 14.4838 0.0170135 14.9828 -0.000986549H15.1028C15.9267 -0.00999923 16.7215 0.303274 17.3178 0.872013C17.5901 1.14215 17.8022 1.46689 17.9401 1.82487C18.078 2.18285 18.1385 2.56596 18.1178 2.94901C18.0918 3.71601 18.0998 4.48901 18.1068 5.23601V5.27401C18.1068 5.59901 18.1128 5.93601 18.1138 6.26601C18.1138 6.34801 18.1138 6.42801 18.1238 6.50601V6.53401C18.1238 6.56501 18.1238 6.59601 18.1288 6.62801H21.5718L27.2178 6.64401H28.1658C28.3538 6.64401 28.5408 6.64401 28.7278 6.64401C29.2969 6.62939 29.8572 6.7869 30.3354 7.09592C30.8135 7.40494 31.1873 7.8511 31.4078 8.37601C31.5254 8.65763 31.5888 8.95889 31.5948 9.26401C31.6058 13.609 31.6108 17.264 31.5948 20.981C31.5706 21.6661 31.285 22.3158 30.7966 22.7968C30.3082 23.2778 29.6541 23.5534 28.9688 23.567C28.0558 23.598 27.1568 23.602 26.4758 23.602H25.3948H23.9158H23.5158H23.4908H22.9708C22.6508 23.602 22.3898 23.602 22.1488 23.589H22.0918C21.8145 23.5838 21.5457 23.6843 21.3398 23.87C20.7248 24.39 20.0778 24.921 19.5068 25.389L19.4978 25.397C19.1588 25.675 18.8078 25.962 18.4648 26.246C18.3243 26.3898 18.1378 26.4797 17.9378 26.5ZM17.3068 22.583H17.7168C18.2998 22.583 18.4708 22.742 18.4788 23.289C18.4788 23.633 18.4788 23.996 18.4788 24.315C18.4788 24.489 18.4788 24.668 18.4788 24.857L18.6038 24.768L18.6178 24.758H18.6238C18.6848 24.715 18.7238 24.683 18.7718 24.649L19.3018 24.215L19.3498 24.175C19.8638 23.755 20.3948 23.32 20.9128 22.885C21.1433 22.6813 21.4433 22.5739 21.7508 22.585H21.7608C22.9458 22.585 24.1738 22.591 25.4118 22.591C26.4538 22.591 27.5368 22.591 28.6338 22.591C28.8789 22.6122 29.1258 22.5814 29.3583 22.5007C29.5907 22.42 29.8036 22.2911 29.9829 22.1226C30.1622 21.9541 30.3039 21.7496 30.3988 21.5226C30.4938 21.2955 30.5397 21.051 30.5338 20.805C30.5338 17.715 30.5338 14.205 30.5338 9.42701C30.5368 9.18375 30.4892 8.94251 30.394 8.71864C30.2987 8.49478 30.1579 8.29319 29.9805 8.12671C29.8031 7.96022 29.593 7.83248 29.3636 7.75162C29.1341 7.67075 28.8903 7.63854 28.6478 7.65701H24.5828C21.9198 7.65701 19.2118 7.65701 16.5338 7.65701C16.2832 7.62599 16.0289 7.65009 15.7886 7.72763C15.5483 7.80517 15.3279 7.93428 15.1427 8.10593C14.9575 8.27757 14.8121 8.4876 14.7166 8.72132C14.6211 8.95504 14.5778 9.20681 14.5898 9.45901C14.5828 10.45 14.5828 11.459 14.5838 12.427V12.452C14.5838 12.865 14.5838 13.279 14.5838 13.692V14.8C14.5838 16.942 14.5838 18.872 14.5838 20.8C14.5775 21.0458 14.6234 21.2901 14.7183 21.5169C14.8132 21.7437 14.9551 21.9478 15.1346 22.1159C15.314 22.2839 15.5271 22.412 15.7596 22.4919C15.9921 22.5717 16.2389 22.6014 16.4838 22.579H17.0068L17.3068 22.583ZM8.43676 3.61201C7.7378 3.55409 7.04126 3.74889 6.47376 4.16101C6.23452 4.39567 6.05053 4.68067 5.93515 4.9953C5.81978 5.30994 5.77592 5.64632 5.80676 5.98001V10.88C5.77577 11.2139 5.81956 11.5504 5.93493 11.8653C6.05031 12.1801 6.23438 12.4652 6.47376 12.7C7.0413 13.1121 7.73781 13.3068 8.43676 13.249C9.31776 13.249 10.4148 13.232 10.8448 13.186C10.8821 13.174 10.9144 13.1501 10.9368 13.1179C10.9592 13.0858 10.9704 13.0472 10.9688 13.008V12.359C10.971 12.3397 10.9692 12.3202 10.9633 12.3017C10.9574 12.2831 10.9477 12.2661 10.9348 12.2516C10.9218 12.2372 10.9059 12.2256 10.8882 12.2177C10.8704 12.2099 10.8512 12.2059 10.8318 12.206H8.44876C7.15976 12.206 6.92876 11.859 6.92876 10.882V8.74301H10.7208C10.7537 8.74249 10.7863 8.73548 10.8165 8.72238C10.8468 8.70929 10.8741 8.69036 10.8971 8.66668C10.92 8.643 10.9381 8.61503 10.9502 8.58438C10.9623 8.55372 10.9683 8.52098 10.9678 8.48801V8.00001C10.9683 7.96705 10.9623 7.93431 10.9502 7.90365C10.9381 7.87299 10.92 7.84503 10.8971 7.82135C10.8741 7.79767 10.8468 7.77874 10.8165 7.76564C10.7863 7.75254 10.7537 7.74553 10.7208 7.74501H6.92976V5.98001C6.92976 5.00301 7.15976 4.65601 8.44976 4.65601H10.8318C10.8511 4.65629 10.8703 4.65243 10.8881 4.64468C10.9059 4.63693 10.9218 4.62547 10.9347 4.61108C10.9477 4.59669 10.9574 4.57969 10.9633 4.56122C10.9692 4.54276 10.971 4.52325 10.9688 4.50401V3.86701C10.9704 3.82786 10.9592 3.78924 10.9368 3.75709C10.9144 3.72493 10.8821 3.70102 10.8448 3.68901C10.3058 3.63601 9.11176 3.61201 8.43676 3.61201ZM23.8778 20.448C22.896 20.4886 21.9251 20.2298 21.0938 19.706C20.7175 19.4452 20.4127 19.0941 20.2074 18.6849C20.0021 18.2757 19.9029 17.8215 19.9188 17.364C19.9429 16.8363 20.0878 16.3212 20.3423 15.8583C20.5968 15.3954 20.9541 14.9971 21.3868 14.694C20.3958 14.032 20.0618 13.577 20.0618 12.894C20.0803 12.444 20.2184 12.007 20.4618 11.628C20.6309 11.341 20.8703 11.1017 21.1573 10.9325C21.4444 10.7634 21.7697 10.6699 22.1028 10.661C22.4795 10.6674 22.8491 10.7653 23.1796 10.9463C23.51 11.1273 23.7915 11.386 23.9998 11.7L23.8558 11.874C23.4248 11.6876 22.9593 11.5942 22.4898 11.6C21.4668 11.6 20.7248 12.079 20.7248 12.4C20.7248 12.765 20.9398 13.059 21.4948 13.449C21.7738 13.6589 22.0921 13.8109 22.4308 13.896C22.5821 13.8858 22.7294 13.8432 22.8628 13.771L22.9158 13.747C23.7408 13.379 24.5418 13.056 25.2998 12.788L25.3458 12.812L25.0088 13.9C23.9753 14.2546 22.9721 14.6916 22.0088 15.207C21.0788 15.732 20.5248 16.415 20.5248 17.034C20.5248 18.434 22.1468 19.373 24.5588 19.373C25.3164 19.3788 26.0723 19.2983 26.8118 19.133L26.8748 19.282C26.3994 19.6209 25.9038 19.9305 25.3908 20.209C24.9094 20.3961 24.3934 20.4776 23.8778 20.448Z" fill="#959595"/>
</g>
<defs>
<clipPath id="clip0_1_29">
<rect width="31.614" height="26.5" fill="white" transform="translate(-0.000244141)"/>
</clipPath>
</defs>
</svg>
